<?xml version="1.0" encoding="utf-8"?>
<!-- Generator: Adobe Illustrator 21.1.0, SVG Export Plug-In . SVG Version: 6.00 Build 0)  -->
<svg version="1.1" id="Ebene_1" xmlns="http://www.w3.org/2000/svg" xmlns:xlink="http://www.w3.org/1999/xlink" x="0px" y="0px"
	 viewBox="0 0 122.9 24.2" style="enable-background:new 0 0 122.9 24.2;" xml:space="preserve">
<style type="text/css">
	.st0{fill:#003560;}
</style>
<g>
	<path class="st0" d="M106.8,23.6h8.6c3.5,0,6.9-2,6.9-6.3c0-2.7-1.7-5.1-4.9-5.6v0c2.7-0.6,4.2-2.8,4.2-5.3c0-3.7-2.5-5.6-6.4-5.6
		h-8.4V23.6z M108.8,21.9v-9.1h6c3,0,5.4,1.4,5.4,4.5c0,3.2-2.3,4.6-5.3,4.6H108.8z M108.8,11.1V2.5h5.9c2.7,0,4.9,1.2,4.9,4.2
		c0,3-2.5,4.3-5.1,4.3H108.8z"/>
	<path class="st0" d="M93.4,24c5.3,0,9.2-3.1,9.2-8.6V0.8h-4.9v14.4c0,3-1.5,4.5-4.2,4.5c-2.9,0-4.3-1.8-4.3-4.5V0.8h-5v14.8
		C84.3,21.2,87.9,24,93.4,24"/>
	<path class="st0" d="M76.2,16c3.2-1.8,4.4-4.5,4.4-7.2c0-4.5-3.2-8-7.9-8H62.6v22.8h5V4.8h3.9c2.8,0,4.3,1.7,4.3,3.9
		c0,2-1.2,3.9-4.3,3.9h-3.1l7.8,10.9h5.5L76.2,16z"/>
</g>
<g>
	<path class="st0" d="M26.3,23.6h0.6v-4.3h0l1.6,3.1H29l1.6-3.1h0v4.3h0.6v-5.4h-0.8l-1.7,3.3h0L27,18.2h-0.7V23.6z M23,23.7
		c1.2,0,2-0.7,2-1.9v-3.6h-0.6v3.5c0,0.9-0.5,1.4-1.4,1.4c-0.8,0-1.4-0.4-1.4-1.4v-3.5H21v3.6C21,23.1,22,23.7,23,23.7 M15.8,23.6
		h0.6v-2.5h2.7v2.5h0.6v-5.4h-0.6v2.3h-2.7v-2.3h-0.6V23.6z M12.8,23.7c1.1,0,1.9-0.6,1.9-1.6v-0.2h-0.6V22c0,0.7-0.5,1.2-1.3,1.2
		c-0.8,0-1.5-0.5-1.5-1.3V20c0-0.8,0.6-1.3,1.4-1.3c0.8,0,1.4,0.4,1.4,1.1V20h0.6v-0.3c0-1-0.8-1.6-1.9-1.6c-1.2,0-2,0.8-2,1.9v1.9
		C10.7,23,11.6,23.7,12.8,23.7 M7.6,23.1c-0.8,0-1.5-0.5-1.5-1.3V20c0-0.9,0.6-1.4,1.4-1.4c0.9,0,1.5,0.5,1.5,1.3v1.8
		C9,22.6,8.4,23.1,7.6,23.1 M7.6,23.7c1.1,0,2-0.7,2-1.9V20c0-1.2-0.9-1.9-2-1.9c-1.1,0-2,0.7-2,1.9v1.8C5.5,23,6.5,23.7,7.6,23.7
		 M1.4,20.6v-1.8h1.3c0.6,0,1.1,0.3,1.1,0.9c0,0.6-0.5,0.9-1.1,0.9H1.4z M1.4,23v-2h1.4c0.7,0,1.2,0.3,1.2,1c0,0.7-0.5,1-1.2,1H1.4z
		 M0.8,23.6h2.1c0.8,0,1.6-0.5,1.6-1.5c0-0.6-0.4-1.2-1.1-1.3v0c0.6-0.2,0.9-0.7,0.9-1.2c0-0.9-0.6-1.3-1.5-1.3H0.8V23.6z"/>
	<path class="st0" d="M45.3,14.9h1v-4.5h1.5V9.5h-4.1v0.9h1.5V14.9z M41.8,9h0.9V8h-0.9V9z M40.3,9h0.9V8h-0.9V9z M40.7,12.9
		l0.7-2.1h0l0.7,2.1H40.7z M39.1,14.9h1l0.4-1.1h2l0.4,1.1H44l-2-5.4h-0.9L39.1,14.9z M36.7,14.9h1v-4.5h1.5V9.5h-4.1v0.9h1.5V14.9z
		 M33.3,14.9h1V9.5h-1V14.9z M30.2,15c1.2,0,2.1-0.7,2.1-1.6c0-1-0.6-1.3-1.2-1.5l-0.9-0.2c-0.4-0.1-0.8-0.3-0.8-0.7
		c0-0.5,0.4-0.7,0.9-0.7c0.5,0,0.9,0.2,1.2,0.6l0.8-0.4c-0.3-0.8-1-1.1-1.9-1.1c-1,0-1.9,0.6-1.9,1.6c0,0.9,0.6,1.3,1.3,1.5l0.9,0.2
		c0.4,0.1,0.7,0.3,0.7,0.7c0,0.5-0.5,0.7-1.1,0.7c-0.6,0-1.1-0.3-1.3-0.8l-0.9,0.4C28.3,14.5,29.2,15,30.2,15 M24.4,12v-1.7h1
		c0.6,0,1,0.2,1,0.8c0,0.6-0.4,0.8-1,0.8H24.4z M23.4,14.9h1v-2h0.9l1.3,2h1.1l-1.3-2.1c0.7-0.3,1.1-0.9,1.1-1.6
		c0-1.1-0.8-1.7-1.8-1.7h-2.1V14.9z M18.5,14.9h3.8V14h-2.8v-1.4h2.4v-0.9h-2.4v-1.3h2.7V9.5h-3.7V14.9z M15.1,14.9h1l1.8-5.4h-1
		l-1.2,4h0l-1.2-4h-1.1L15.1,14.9z M11.6,14.9h1V9.5h-1V14.9z M6.1,14.9h1v-3.7h0l2.3,3.7h1V9.5h-1v3.7h0L7.1,9.5h-1V14.9z M2.8,15
		c1.3,0,2.1-0.7,2.1-2V9.5h-1v3.4c0,0.8-0.4,1.2-1.1,1.2c-0.8,0-1.1-0.5-1.1-1.2V9.5h-1V13C0.7,14.3,1.5,15,2.8,15"/>
	<path class="st0" d="M17.5,3.3V1.7h1c0.6,0,1,0.2,1,0.8c0,0.6-0.4,0.8-1,0.8H17.5z M16.5,6.2h1v-2h0.9l1.3,2h1.1l-1.3-2.1
		c0.7-0.3,1.1-0.9,1.1-1.6c0-1.1-0.8-1.7-1.8-1.7h-2.1V6.2z M11.1,6.2h1V3.9h2.1v2.3h1V0.8h-1V3h-2.1V0.8h-1V6.2z M7.8,6.3
		c1.3,0,2.1-0.7,2.1-2V0.8h-1v3.4c0,0.8-0.4,1.2-1.1,1.2c-0.8,0-1.1-0.5-1.1-1.2V0.8h-1v3.5C5.7,5.6,6.6,6.3,7.8,6.3 M1.7,3.3V1.7h1
		c0.6,0,1,0.2,1,0.8c0,0.6-0.4,0.8-1,0.8H1.7z M0.7,6.2h1v-2h0.9l1.3,2h1.1L3.6,4.1c0.7-0.3,1.1-0.9,1.1-1.6c0-1.1-0.8-1.7-1.8-1.7
		H0.7V6.2z"/>
</g>
</svg>
